# xmcd CD database file
# Copyright (C) 1993-1998 Ti Kan
# 
# Track frame offsets:
#     183
#     10570
#     24220
#     37850
#     45620
#     59945
#     72440
#     88743
#     101533
# 
# Disc length: 1575 seconds
# 
# Revision: 1
# Processed by: cddbd v1.4b41PL1 Copyright (c) Steve Scherf et al.
# Submitted via: DiscPlay 4.0.4
# 
DISCID=6b062509
DTITLE=Red Sovine - Cryin' In The Chapel
DYEAR=1900
DGENRE=
TTITLE0=Cryin' In The Chapel
TTITLE1=Be Careful Of Stones That You Throw
TTITLE2=Beyond The Sunset
TTITLE3=Brighten The Corner Where You Are
TTITLE4=I Dreamed About Mama Last Night
TTITLE5=If Jesus Came To Your House
TTITLE6=Roses For Mama
TTITLE7=Satisfied Mind
TTITLE8=Vietman Deck Of Cards
EXTD=
EXTT0=
EXTT1=
EXTT2=
EXTT3=
EXTT4=
EXTT5=
EXTT6=
EXTT7=
EXTT8=
PLAYORDER=
